<svg id="visual" viewBox="0 0 540 960" width="540" height="960" xmlns="http://www.w3.org/2000/svg" xmlns:xlink="http://www.w3.org/1999/xlink" version="1.1"><rect x="0" y="0" width="540" height="960" fill="#001220"></rect><defs><linearGradient id="grad1_0" x1="0%" y1="0%" x2="100%" y2="100%"><stop offset="30%" stop-color="#fbae3c" stop-opacity="1"></stop><stop offset="70%" stop-color="#fbae3c" stop-opacity="1"></stop></linearGradient></defs><defs><linearGradient id="grad1_1" x1="0%" y1="0%" x2="100%" y2="100%"><stop offset="30%" stop-color="#fbae3c" stop-opacity="1"></stop><stop offset="70%" stop-color="#96446e" stop-opacity="1"></stop></linearGradient></defs><defs><linearGradient id="grad1_2" x1="0%" y1="0%" x2="100%" y2="100%"><stop offset="30%" stop-color="#001220" stop-opacity="1"></stop><stop offset="70%" stop-color="#96446e" stop-opacity="1"></stop></linearGradient></defs><defs><linearGradient id="grad2_0" x1="0%" y1="0%" x2="100%" y2="100%"><stop offset="30%" stop-color="#fbae3c" stop-opacity="1"></stop><stop offset="70%" stop-color="#fbae3c" stop-opacity="1"></stop></linearGradient></defs><defs><linearGradient id="grad2_1" x1="0%" y1="0%" x2="100%" y2="100%"><stop offset="30%" stop-color="#96446e" stop-opacity="1"></stop><stop offset="70%" stop-color="#fbae3c" stop-opacity="1"></stop></linearGradient></defs><defs><linearGradient id="grad2_2" x1="0%" y1="0%" x2="100%" y2="100%"><stop offset="30%" stop-color="#96446e" stop-opacity="1"></stop><stop offset="70%" stop-color="#001220" stop-opacity="1"></stop></linearGradient></defs><g transform="translate(540, 0)"><path d="M0 513C-61.7 498.5 -123.3 484 -192.1 463.8C-260.9 443.6 -336.8 417.8 -362.7 362.7C-388.7 307.7 -364.8 223.4 -381.6 158C-398.3 92.7 -455.6 46.4 -513 0L0 0Z" fill="#3d3056"></path><path d="M0 342C-41.1 332.3 -82.2 322.6 -128.1 309.2C-173.9 295.7 -224.5 278.5 -241.8 241.8C-259.2 205.1 -243.2 148.9 -254.4 105.4C-265.5 61.8 -303.8 30.9 -342 0L0 0Z" fill="#e1685e"></path><path d="M0 171C-20.6 166.2 -41.1 161.3 -64 154.6C-87 147.9 -112.3 139.3 -120.9 120.9C-129.6 102.6 -121.6 74.5 -127.2 52.7C-132.8 30.9 -151.9 15.5 -171 0L0 0Z" fill="#fbae3c"></path></g><g transform="translate(0, 960)"><path d="M0 -513C55.4 -476.1 110.9 -439.2 173.4 -418.5C235.9 -397.8 305.4 -393.4 359.2 -359.2C413 -325 451 -261.1 474 -196.3C496.9 -131.5 505 -65.7 513 0L0 0Z" fill="#3d3056"></path><path d="M0 -342C37 -317.4 73.9 -292.8 115.6 -279C157.2 -265.2 203.6 -262.3 239.5 -239.5C275.3 -216.7 300.6 -174.1 316 -130.9C331.3 -87.7 336.6 -43.8 342 0L0 0Z" fill="#e1685e"></path><path d="M0 -171C18.5 -158.7 37 -146.4 57.8 -139.5C78.6 -132.6 101.8 -131.1 119.7 -119.7C137.7 -108.3 150.3 -87 158 -65.4C165.6 -43.8 168.3 -21.9 171 0L0 0Z" fill="#fbae3c"></path></g></svg>