<svg id="visual" viewBox="0 0 960 540" width="960" height="540" xmlns="http://www.w3.org/2000/svg" xmlns:xlink="http://www.w3.org/1999/xlink" version="1.1"><rect x="0" y="0" width="960" height="540" fill="#001220"></rect><defs><linearGradient id="grad1_0" x1="43.8%" y1="0%" x2="100%" y2="100%"><stop offset="14.444444444444446%" stop-color="#fbae3c" stop-opacity="1"></stop><stop offset="85.55555555555554%" stop-color="#fbae3c" stop-opacity="1"></stop></linearGradient></defs><defs><linearGradient id="grad1_1" x1="43.8%" y1="0%" x2="100%" y2="100%"><stop offset="14.444444444444446%" stop-color="#fbae3c" stop-opacity="1"></stop><stop offset="85.55555555555554%" stop-color="#96446e" stop-opacity="1"></stop></linearGradient></defs><defs><linearGradient id="grad1_2" x1="43.8%" y1="0%" x2="100%" y2="100%"><stop offset="14.444444444444446%" stop-color="#001220" stop-opacity="1"></stop><stop offset="85.55555555555554%" stop-color="#96446e" stop-opacity="1"></stop></linearGradient></defs><defs><linearGradient id="grad2_0" x1="0%" y1="0%" x2="56.3%" y2="100%"><stop offset="14.444444444444446%" stop-color="#fbae3c" stop-opacity="1"></stop><stop offset="85.55555555555554%" stop-color="#fbae3c" stop-opacity="1"></stop></linearGradient></defs><defs><linearGradient id="grad2_1" x1="0%" y1="0%" x2="56.3%" y2="100%"><stop offset="14.444444444444446%" stop-color="#96446e" stop-opacity="1"></stop><stop offset="85.55555555555554%" stop-color="#fbae3c" stop-opacity="1"></stop></linearGradient></defs><defs><linearGradient id="grad2_2" x1="0%" y1="0%" x2="56.3%" y2="100%"><stop offset="14.444444444444446%" stop-color="#96446e" stop-opacity="1"></stop><stop offset="85.55555555555554%" stop-color="#001220" stop-opacity="1"></stop></linearGradient></defs><g transform="translate(960, 0)"><path d="M0 486C-64.6 476.2 -129.3 466.5 -181 437C-232.7 407.5 -271.5 358.4 -312.5 312.5C-353.5 266.7 -396.7 224.1 -416.7 172.6C-436.6 121 -433.3 60.5 -430 0L0 0Z" fill="#3d3056"></path><path d="M0 324C-43.1 317.5 -86.2 311 -120.7 291.3C-155.2 271.7 -181 238.9 -208.4 208.4C-235.7 177.8 -264.5 149.4 -277.8 115.1C-291.1 80.7 -288.9 40.3 -286.7 0L0 0Z" fill="#e1685e"></path><path d="M0 162C-21.5 158.7 -43.1 155.5 -60.3 145.7C-77.6 135.8 -90.5 119.5 -104.2 104.2C-117.8 88.9 -132.2 74.7 -138.9 57.5C-145.5 40.3 -144.4 20.2 -143.3 0L0 0Z" fill="#fbae3c"></path></g><g transform="translate(0, 540)"><path d="M0 -486C66 -478.2 132.1 -470.4 182.2 -439.8C232.2 -409.1 266.3 -355.6 311.1 -311.1C356 -266.7 411.6 -231.3 437 -181C462.4 -130.7 457.7 -65.3 453 0L0 0Z" fill="#3d3056"></path><path d="M0 -324C44 -318.8 88.1 -313.6 121.4 -293.2C154.8 -272.7 177.5 -237 207.4 -207.4C237.3 -177.8 274.4 -154.2 291.3 -120.7C308.3 -87.1 305.1 -43.6 302 0L0 0Z" fill="#e1685e"></path><path d="M0 -162C22 -159.4 44 -156.8 60.7 -146.6C77.4 -136.4 88.8 -118.5 103.7 -103.7C118.7 -88.9 137.2 -77.1 145.7 -60.3C154.1 -43.6 152.6 -21.8 151 0L0 0Z" fill="#fbae3c"></path></g></svg>